<mxfile host="app.diagrams.net" modified="2021-01-30T14:01:12.222Z" agent="5.0 (Windows NT 10.0; Win64; x64) AppleWebKit/537.36 (KHTML, like Gecko) Chrome/87.0.4280.141 Safari/537.36" etag="mS8E5C7VaIqliMIFy66T" version="14.2.3" type="github">
  <diagram id="3CzPUTpHrlHyZUtjwLsB" name="Page-1">
    <mxGraphModel dx="1777" dy="454" grid="1" gridSize="10" guides="1" tooltips="1" connect="1" arrows="1" fold="1" page="1" pageScale="1" pageWidth="827" pageHeight="1169" math="0" shadow="0">
      <root>
        <mxCell id="0" />
        <mxCell id="1" parent="0" />
        <mxCell id="zT4QuSSP40gOlRclM1o9-1" value="" style="rounded=0;whiteSpace=wrap;html=1;" parent="1" vertex="1">
          <mxGeometry x="17.4" y="10" width="642.6" height="250" as="geometry" />
        </mxCell>
        <mxCell id="zT4QuSSP40gOlRclM1o9-37" style="edgeStyle=orthogonalEdgeStyle;rounded=0;orthogonalLoop=1;jettySize=auto;html=1;entryX=0.25;entryY=0.1;entryDx=0;entryDy=0;entryPerimeter=0;" parent="1" source="zT4QuSSP40gOlRclM1o9-16" target="zT4QuSSP40gOlRclM1o9-14" edge="1">
          <mxGeometry relative="1" as="geometry">
            <Array as="points">
              <mxPoint x="550" y="140" />
              <mxPoint x="550" y="87" />
            </Array>
          </mxGeometry>
        </mxCell>
        <mxCell id="zT4QuSSP40gOlRclM1o9-16" value="" style="rounded=0;whiteSpace=wrap;html=1;" parent="1" vertex="1">
          <mxGeometry x="390" y="70" width="130" height="140" as="geometry" />
        </mxCell>
        <mxCell id="zT4QuSSP40gOlRclM1o9-17" value="" style="rounded=0;whiteSpace=wrap;html=1;" parent="1" vertex="1">
          <mxGeometry x="390" y="67.8" width="130" height="10" as="geometry" />
        </mxCell>
        <mxCell id="zT4QuSSP40gOlRclM1o9-18" value="Browser" style="text;html=1;strokeColor=none;fillColor=none;align=center;verticalAlign=middle;whiteSpace=wrap;rounded=0;" parent="1" vertex="1">
          <mxGeometry x="435" y="40" width="40" height="20" as="geometry" />
        </mxCell>
        <mxCell id="zT4QuSSP40gOlRclM1o9-6" value="" style="verticalLabelPosition=bottom;html=1;verticalAlign=top;strokeWidth=1;align=center;outlineConnect=0;dashed=0;outlineConnect=0;shape=mxgraph.aws3d.file;aspect=fixed;strokeColor=#292929;" parent="1" vertex="1">
          <mxGeometry x="436.62" y="103.9" width="23.99" height="55" as="geometry" />
        </mxCell>
        <mxCell id="zT4QuSSP40gOlRclM1o9-4" value="" style="shape=flexArrow;endArrow=classic;startArrow=classic;html=1;exitX=1;exitY=0.5;exitDx=0;exitDy=0;" parent="1" source="zT4QuSSP40gOlRclM1o9-5" target="zT4QuSSP40gOlRclM1o9-6" edge="1">
          <mxGeometry width="50" height="50" relative="1" as="geometry">
            <mxPoint x="226" y="174.89999999999998" as="sourcePoint" />
            <mxPoint x="326" y="94.89999999999998" as="targetPoint" />
            <Array as="points">
              <mxPoint x="370" y="160" />
              <mxPoint x="250" y="120" />
            </Array>
          </mxGeometry>
        </mxCell>
        <mxCell id="zT4QuSSP40gOlRclM1o9-5" value="communicator.py" style="rounded=1;whiteSpace=wrap;html=1;" parent="1" vertex="1">
          <mxGeometry x="130" y="123.9" width="96" height="46.1" as="geometry" />
        </mxCell>
        <mxCell id="zT4QuSSP40gOlRclM1o9-7" value="kiemi_ui.html" style="text;html=1;strokeColor=none;fillColor=none;align=center;verticalAlign=middle;whiteSpace=wrap;rounded=0;" parent="1" vertex="1">
          <mxGeometry x="400" y="158.89999999999998" width="110" height="20" as="geometry" />
        </mxCell>
        <mxCell id="zT4QuSSP40gOlRclM1o9-10" value="websocketd" style="text;html=1;strokeColor=none;fillColor=none;align=center;verticalAlign=middle;whiteSpace=wrap;rounded=0;" parent="1" vertex="1">
          <mxGeometry x="280" y="89" width="40" height="20" as="geometry" />
        </mxCell>
        <mxCell id="zT4QuSSP40gOlRclM1o9-13" style="edgeStyle=orthogonalEdgeStyle;rounded=0;orthogonalLoop=1;jettySize=auto;html=1;entryX=0;entryY=0.5;entryDx=0;entryDy=0;" parent="1" source="zT4QuSSP40gOlRclM1o9-11" target="zT4QuSSP40gOlRclM1o9-5" edge="1">
          <mxGeometry relative="1" as="geometry" />
        </mxCell>
        <mxCell id="zT4QuSSP40gOlRclM1o9-11" value="" style="verticalLabelPosition=bottom;html=1;verticalAlign=top;strokeWidth=1;align=center;outlineConnect=0;dashed=0;outlineConnect=0;shape=mxgraph.aws3d.file;aspect=fixed;strokeColor=#292929;" parent="1" vertex="1">
          <mxGeometry x="60" y="128.3" width="17" height="38.97" as="geometry" />
        </mxCell>
        <mxCell id="zT4QuSSP40gOlRclM1o9-12" value="fifo_input_file" style="text;html=1;align=center;verticalAlign=middle;resizable=0;points=[];autosize=1;" parent="1" vertex="1">
          <mxGeometry x="23.5" y="103.89999999999995" width="90" height="20" as="geometry" />
        </mxCell>
        <mxCell id="zT4QuSSP40gOlRclM1o9-14" value="Viewer" style="shape=umlActor;verticalLabelPosition=bottom;verticalAlign=top;html=1;outlineConnect=0;" parent="1" vertex="1">
          <mxGeometry x="580" y="77.8" width="50" height="95" as="geometry" />
        </mxCell>
        <mxCell id="zT4QuSSP40gOlRclM1o9-60" value="" style="group" parent="1" vertex="1" connectable="0">
          <mxGeometry x="-13.8" y="720" width="692.6" height="250" as="geometry" />
        </mxCell>
        <mxCell id="zT4QuSSP40gOlRclM1o9-59" value="" style="rounded=0;whiteSpace=wrap;html=1;" parent="zT4QuSSP40gOlRclM1o9-60" vertex="1">
          <mxGeometry width="692.6" height="250" as="geometry" />
        </mxCell>
        <mxCell id="zT4QuSSP40gOlRclM1o9-21" value="" style="rounded=0;whiteSpace=wrap;html=1;" parent="zT4QuSSP40gOlRclM1o9-60" vertex="1">
          <mxGeometry x="518" y="48.85000000000002" width="144" height="125.35" as="geometry" />
        </mxCell>
        <mxCell id="zT4QuSSP40gOlRclM1o9-22" value="" style="rounded=0;whiteSpace=wrap;html=1;" parent="zT4QuSSP40gOlRclM1o9-60" vertex="1">
          <mxGeometry x="518" y="38.85000000000002" width="144" height="10" as="geometry" />
        </mxCell>
        <mxCell id="zT4QuSSP40gOlRclM1o9-23" value="Browser" style="text;html=1;strokeColor=none;fillColor=none;align=center;verticalAlign=middle;whiteSpace=wrap;rounded=0;" parent="zT4QuSSP40gOlRclM1o9-60" vertex="1">
          <mxGeometry x="570" y="18.850000000000023" width="40" height="20" as="geometry" />
        </mxCell>
        <mxCell id="zT4QuSSP40gOlRclM1o9-24" value="" style="verticalLabelPosition=bottom;html=1;verticalAlign=top;strokeWidth=1;align=center;outlineConnect=0;dashed=0;outlineConnect=0;shape=mxgraph.aws3d.file;aspect=fixed;strokeColor=#292929;" parent="zT4QuSSP40gOlRclM1o9-60" vertex="1">
          <mxGeometry x="576.91" y="71.50000000000006" width="26.18" height="60" as="geometry" />
        </mxCell>
        <mxCell id="zT4QuSSP40gOlRclM1o9-25" value="" style="shape=flexArrow;endArrow=classic;startArrow=classic;html=1;exitX=1;exitY=0.5;exitDx=0;exitDy=0;" parent="zT4QuSSP40gOlRclM1o9-60" source="zT4QuSSP40gOlRclM1o9-26" target="zT4QuSSP40gOlRclM1o9-24" edge="1">
          <mxGeometry x="-18" y="14.200000000000045" width="50" height="50" as="geometry">
            <mxPoint x="442" y="144.20000000000005" as="sourcePoint" />
            <mxPoint x="494" y="64.10000000000002" as="targetPoint" />
            <Array as="points">
              <mxPoint x="503.6" y="134.20000000000005" />
              <mxPoint x="472" y="94.20000000000005" />
            </Array>
          </mxGeometry>
        </mxCell>
        <mxCell id="zT4QuSSP40gOlRclM1o9-26" value="communicator.py" style="rounded=1;whiteSpace=wrap;html=1;" parent="zT4QuSSP40gOlRclM1o9-60" vertex="1">
          <mxGeometry x="324.6" y="108.35000000000002" width="110" height="38.3" as="geometry" />
        </mxCell>
        <mxCell id="zT4QuSSP40gOlRclM1o9-27" value="kiemi_ui.html" style="text;html=1;strokeColor=none;fillColor=none;align=center;verticalAlign=middle;whiteSpace=wrap;rounded=0;" parent="zT4QuSSP40gOlRclM1o9-60" vertex="1">
          <mxGeometry x="535" y="131.5" width="110" height="20" as="geometry" />
        </mxCell>
        <mxCell id="zT4QuSSP40gOlRclM1o9-28" value="websocketd" style="text;html=1;strokeColor=none;fillColor=none;align=center;verticalAlign=middle;whiteSpace=wrap;rounded=0;" parent="zT4QuSSP40gOlRclM1o9-60" vertex="1">
          <mxGeometry x="452" y="64.20000000000005" width="40" height="20" as="geometry" />
        </mxCell>
        <mxCell id="zT4QuSSP40gOlRclM1o9-29" style="edgeStyle=orthogonalEdgeStyle;rounded=0;orthogonalLoop=1;jettySize=auto;html=1;entryX=0;entryY=0.5;entryDx=0;entryDy=0;" parent="zT4QuSSP40gOlRclM1o9-60" source="zT4QuSSP40gOlRclM1o9-30" target="zT4QuSSP40gOlRclM1o9-26" edge="1">
          <mxGeometry x="-18" y="14.200000000000045" as="geometry" />
        </mxCell>
        <mxCell id="zT4QuSSP40gOlRclM1o9-30" value="" style="verticalLabelPosition=bottom;html=1;verticalAlign=top;strokeWidth=1;align=center;outlineConnect=0;dashed=0;outlineConnect=0;shape=mxgraph.aws3d.file;aspect=fixed;strokeColor=#292929;" parent="zT4QuSSP40gOlRclM1o9-60" vertex="1">
          <mxGeometry x="269" y="100.45000000000005" width="23.6" height="54.1" as="geometry" />
        </mxCell>
        <mxCell id="zT4QuSSP40gOlRclM1o9-31" value="fifo_input_file" style="text;html=1;align=center;verticalAlign=middle;resizable=0;points=[];autosize=1;" parent="zT4QuSSP40gOlRclM1o9-60" vertex="1">
          <mxGeometry x="234.6" y="77.5" width="90" height="20" as="geometry" />
        </mxCell>
        <mxCell id="zT4QuSSP40gOlRclM1o9-32" value="Actor" style="shape=umlActor;verticalLabelPosition=bottom;verticalAlign=top;html=1;outlineConnect=0;" parent="zT4QuSSP40gOlRclM1o9-60" vertex="1">
          <mxGeometry x="22.6" y="77.5" width="50" height="95" as="geometry" />
        </mxCell>
        <mxCell id="zT4QuSSP40gOlRclM1o9-33" value="" style="points=[[0,0.5,0],[0.19,0.02,0],[0.59,0,0],[0.985,0.02,0],[1,0.5,0],[0.985,0.98,0],[0.59,1,0],[0.19,0.98,0]];verticalLabelPosition=bottom;html=1;verticalAlign=top;aspect=fixed;align=center;pointerEvents=1;shape=mxgraph.cisco19.camera;fillColor=#005073;strokeColor=none;" parent="zT4QuSSP40gOlRclM1o9-60" vertex="1">
          <mxGeometry x="80" y="116.90000000000009" width="37.08" height="20.6" as="geometry" />
        </mxCell>
        <mxCell id="zT4QuSSP40gOlRclM1o9-34" value="" style="rounded=1;whiteSpace=wrap;html=1;" parent="zT4QuSSP40gOlRclM1o9-60" vertex="1">
          <mxGeometry x="141" y="82.5" width="94" height="90" as="geometry" />
        </mxCell>
        <mxCell id="zT4QuSSP40gOlRclM1o9-38" style="edgeStyle=orthogonalEdgeStyle;rounded=0;orthogonalLoop=1;jettySize=auto;html=1;entryX=-0.011;entryY=0.498;entryDx=0;entryDy=0;entryPerimeter=0;exitX=1;exitY=0.5;exitDx=0;exitDy=0;exitPerimeter=0;" parent="zT4QuSSP40gOlRclM1o9-60" source="zT4QuSSP40gOlRclM1o9-33" target="zT4QuSSP40gOlRclM1o9-34" edge="1">
          <mxGeometry x="7.105427357601002e-15" y="14.200000000000045" as="geometry">
            <mxPoint x="105" y="121.20000000000005" as="sourcePoint" />
            <mxPoint x="141" y="127.5" as="targetPoint" />
            <Array as="points">
              <mxPoint x="123.6" y="127.20000000000005" />
            </Array>
          </mxGeometry>
        </mxCell>
        <mxCell id="zT4QuSSP40gOlRclM1o9-35" value="Sensor data&lt;br&gt;Tensorflow&lt;br&gt;?" style="text;html=1;align=center;verticalAlign=middle;resizable=0;points=[];autosize=1;" parent="zT4QuSSP40gOlRclM1o9-60" vertex="1">
          <mxGeometry x="148" y="101.5" width="80" height="50" as="geometry" />
        </mxCell>
        <mxCell id="D8RaN2IuwbE9ZCIVpUQj-3" value="Full communication path from the end user to the UI" style="text;html=1;strokeColor=none;fillColor=none;align=center;verticalAlign=middle;whiteSpace=wrap;rounded=0;" parent="zT4QuSSP40gOlRclM1o9-60" vertex="1">
          <mxGeometry x="10" y="10" width="300" height="20" as="geometry" />
        </mxCell>
        <mxCell id="zT4QuSSP40gOlRclM1o9-64" value="" style="group" parent="1" vertex="1" connectable="0">
          <mxGeometry x="16" y="320" width="397.89" height="387.85" as="geometry" />
        </mxCell>
        <mxCell id="zT4QuSSP40gOlRclM1o9-63" value="" style="rounded=0;whiteSpace=wrap;html=1;" parent="zT4QuSSP40gOlRclM1o9-64" vertex="1">
          <mxGeometry width="397.89" height="387.85" as="geometry" />
        </mxCell>
        <mxCell id="zT4QuSSP40gOlRclM1o9-52" value="" style="rounded=1;whiteSpace=wrap;html=1;" parent="zT4QuSSP40gOlRclM1o9-64" vertex="1">
          <mxGeometry x="51.5" y="261.85" width="207" height="100" as="geometry" />
        </mxCell>
        <mxCell id="zT4QuSSP40gOlRclM1o9-40" value="" style="rounded=0;whiteSpace=wrap;html=1;" parent="zT4QuSSP40gOlRclM1o9-64" vertex="1">
          <mxGeometry x="78.5" y="42.5" width="154" height="130" as="geometry" />
        </mxCell>
        <mxCell id="zT4QuSSP40gOlRclM1o9-41" value="" style="rounded=0;whiteSpace=wrap;html=1;" parent="zT4QuSSP40gOlRclM1o9-64" vertex="1">
          <mxGeometry x="78.5" y="32.5" width="154" height="10" as="geometry" />
        </mxCell>
        <mxCell id="zT4QuSSP40gOlRclM1o9-42" value="Browser" style="text;html=1;strokeColor=none;fillColor=none;align=center;verticalAlign=middle;whiteSpace=wrap;rounded=0;" parent="zT4QuSSP40gOlRclM1o9-64" vertex="1">
          <mxGeometry x="135.5" y="7.850000000000023" width="40" height="20" as="geometry" />
        </mxCell>
        <mxCell id="zT4QuSSP40gOlRclM1o9-43" value="" style="verticalLabelPosition=bottom;html=1;verticalAlign=top;strokeWidth=1;align=center;outlineConnect=0;dashed=0;outlineConnect=0;shape=mxgraph.aws3d.file;aspect=fixed;strokeColor=#292929;" parent="zT4QuSSP40gOlRclM1o9-64" vertex="1">
          <mxGeometry x="141.90999999999997" y="65.15000000000003" width="26.18" height="60" as="geometry" />
        </mxCell>
        <mxCell id="zT4QuSSP40gOlRclM1o9-45" value="kiemi_ui.html" style="text;html=1;strokeColor=none;fillColor=none;align=center;verticalAlign=middle;whiteSpace=wrap;rounded=0;" parent="zT4QuSSP40gOlRclM1o9-64" vertex="1">
          <mxGeometry x="100.68" y="137.84999999999997" width="110" height="20" as="geometry" />
        </mxCell>
        <mxCell id="zT4QuSSP40gOlRclM1o9-46" value="websocketd" style="text;html=1;strokeColor=none;fillColor=none;align=center;verticalAlign=middle;whiteSpace=wrap;rounded=0;" parent="zT4QuSSP40gOlRclM1o9-64" vertex="1">
          <mxGeometry x="21.5" y="65.15000000000003" width="40" height="20" as="geometry" />
        </mxCell>
        <mxCell id="zT4QuSSP40gOlRclM1o9-54" style="edgeStyle=orthogonalEdgeStyle;rounded=0;orthogonalLoop=1;jettySize=auto;html=1;entryX=0.5;entryY=0;entryDx=0;entryDy=0;startArrow=classic;startFill=1;" parent="zT4QuSSP40gOlRclM1o9-64" source="zT4QuSSP40gOlRclM1o9-47" target="zT4QuSSP40gOlRclM1o9-52" edge="1">
          <mxGeometry relative="1" as="geometry">
            <mxPoint x="156.5" y="258.85" as="targetPoint" />
            <Array as="points">
              <mxPoint x="155.5" y="247.85000000000002" />
              <mxPoint x="155.5" y="247.85000000000002" />
            </Array>
          </mxGeometry>
        </mxCell>
        <mxCell id="zT4QuSSP40gOlRclM1o9-47" value="" style="rounded=1;whiteSpace=wrap;html=1;" parent="zT4QuSSP40gOlRclM1o9-64" vertex="1">
          <mxGeometry x="75.5" y="198.85000000000002" width="160" height="40" as="geometry" />
        </mxCell>
        <mxCell id="zT4QuSSP40gOlRclM1o9-48" style="edgeStyle=orthogonalEdgeStyle;rounded=0;orthogonalLoop=1;jettySize=auto;html=1;entryX=0.5;entryY=0;entryDx=0;entryDy=0;startArrow=classic;startFill=1;" parent="zT4QuSSP40gOlRclM1o9-64" source="zT4QuSSP40gOlRclM1o9-40" target="zT4QuSSP40gOlRclM1o9-47" edge="1">
          <mxGeometry relative="1" as="geometry" />
        </mxCell>
        <mxCell id="zT4QuSSP40gOlRclM1o9-44" value="" style="shape=flexArrow;endArrow=classic;startArrow=none;html=1;startFill=0;" parent="zT4QuSSP40gOlRclM1o9-64" target="zT4QuSSP40gOlRclM1o9-43" edge="1">
          <mxGeometry width="50" height="50" relative="1" as="geometry">
            <mxPoint x="57.889999999999986" y="94.85000000000002" as="sourcePoint" />
            <mxPoint x="7.100000000000023" y="-282.25" as="targetPoint" />
            <Array as="points">
              <mxPoint x="64.88999999999999" y="94.85000000000002" />
            </Array>
          </mxGeometry>
        </mxCell>
        <mxCell id="zT4QuSSP40gOlRclM1o9-49" value="" style="shape=cylinder3;whiteSpace=wrap;html=1;boundedLbl=1;backgroundOutline=1;size=15;" parent="zT4QuSSP40gOlRclM1o9-64" vertex="1">
          <mxGeometry x="61.5" y="271.85" width="60" height="80" as="geometry" />
        </mxCell>
        <mxCell id="zT4QuSSP40gOlRclM1o9-50" value="" style="shape=cylinder3;whiteSpace=wrap;html=1;boundedLbl=1;backgroundOutline=1;size=15;" parent="zT4QuSSP40gOlRclM1o9-64" vertex="1">
          <mxGeometry x="125.68" y="271.85" width="60" height="80" as="geometry" />
        </mxCell>
        <mxCell id="zT4QuSSP40gOlRclM1o9-51" value="" style="shape=cylinder3;whiteSpace=wrap;html=1;boundedLbl=1;backgroundOutline=1;size=15;" parent="zT4QuSSP40gOlRclM1o9-64" vertex="1">
          <mxGeometry x="189.5" y="271.85" width="60" height="80" as="geometry" />
        </mxCell>
        <mxCell id="zT4QuSSP40gOlRclM1o9-55" value="Data API layer" style="text;html=1;strokeColor=none;fillColor=none;align=center;verticalAlign=middle;whiteSpace=wrap;rounded=0;" parent="zT4QuSSP40gOlRclM1o9-64" vertex="1">
          <mxGeometry x="107" y="208.85000000000002" width="97" height="20" as="geometry" />
        </mxCell>
        <mxCell id="zT4QuSSP40gOlRclM1o9-56" value="Influxdb" style="text;html=1;align=center;verticalAlign=middle;resizable=0;points=[];autosize=1;" parent="zT4QuSSP40gOlRclM1o9-64" vertex="1">
          <mxGeometry x="61.5" y="317.85" width="60" height="20" as="geometry" />
        </mxCell>
        <mxCell id="zT4QuSSP40gOlRclM1o9-57" value="Säätiedot" style="text;html=1;align=center;verticalAlign=middle;resizable=0;points=[];autosize=1;" parent="zT4QuSSP40gOlRclM1o9-64" vertex="1">
          <mxGeometry x="120" y="317.85" width="70" height="20" as="geometry" />
        </mxCell>
        <mxCell id="zT4QuSSP40gOlRclM1o9-58" value="Bussit" style="text;html=1;align=center;verticalAlign=middle;resizable=0;points=[];autosize=1;" parent="zT4QuSSP40gOlRclM1o9-64" vertex="1">
          <mxGeometry x="194.5" y="317.85" width="50" height="20" as="geometry" />
        </mxCell>
        <mxCell id="zT4QuSSP40gOlRclM1o9-61" value="Viewer" style="shape=umlActor;verticalLabelPosition=bottom;verticalAlign=top;html=1;outlineConnect=0;" parent="zT4QuSSP40gOlRclM1o9-64" vertex="1">
          <mxGeometry x="267.89" y="60" width="50" height="95" as="geometry" />
        </mxCell>
        <mxCell id="zT4QuSSP40gOlRclM1o9-62" style="edgeStyle=orthogonalEdgeStyle;rounded=0;orthogonalLoop=1;jettySize=auto;html=1;entryX=0.25;entryY=0.1;entryDx=0;entryDy=0;entryPerimeter=0;startArrow=none;startFill=0;" parent="zT4QuSSP40gOlRclM1o9-64" source="zT4QuSSP40gOlRclM1o9-40" target="zT4QuSSP40gOlRclM1o9-61" edge="1">
          <mxGeometry relative="1" as="geometry" />
        </mxCell>
        <mxCell id="D8RaN2IuwbE9ZCIVpUQj-1" value="From input to viewer" style="text;html=1;strokeColor=none;fillColor=none;align=center;verticalAlign=middle;whiteSpace=wrap;rounded=0;" parent="1" vertex="1">
          <mxGeometry x="23.5" y="20" width="136.5" height="20" as="geometry" />
        </mxCell>
        <mxCell id="D8RaN2IuwbE9ZCIVpUQj-2" value="Data from datasources - how to do this?" style="text;html=1;strokeColor=none;fillColor=none;align=center;verticalAlign=middle;whiteSpace=wrap;rounded=0;" parent="1" vertex="1">
          <mxGeometry x="16" y="300" width="294" height="20" as="geometry" />
        </mxCell>
        <mxCell id="hFyH83U5A5knFON6TQXR-5" style="edgeStyle=orthogonalEdgeStyle;rounded=0;orthogonalLoop=1;jettySize=auto;html=1;" edge="1" parent="1" source="hFyH83U5A5knFON6TQXR-2" target="zT4QuSSP40gOlRclM1o9-30">
          <mxGeometry relative="1" as="geometry" />
        </mxCell>
        <mxCell id="hFyH83U5A5knFON6TQXR-2" value="" style="aspect=fixed;html=1;points=[];align=center;image;fontSize=12;image=img/lib/azure2/general/Dev_Console.svg;" vertex="1" parent="1">
          <mxGeometry x="234.5" y="990" width="65" height="52" as="geometry" />
        </mxCell>
      </root>
    </mxGraphModel>
  </diagram>
</mxfile>
